{"title":"Ca$h 2010 DVDRip XviD By SKITTLES","uid":5756689,"size":734828829,"categoryP":"video","categoryS":"movies","magnet":"?xt=urn:btih:bdbbee48d80c89d34fbe0ae5b8dd7b498462802f&amp;dn=Ca%24h+2010+DVDRip+XviD+By+SKITTLES&amp;tr=udp%3A%2F%2Ftracker.openbittorrent.com%3A80&amp;tr=udp%3A%2F%2Fopen.demonii.com%3A1337&amp;tr=udp%3A%2F%2Ftracker.coppersurfer.tk%3A6969&amp;tr=udp%3A%2F%2Fexodus.desync.com%3A6969","seeders":0,"leechers":0,"uploader":"SkittlesRG","files":-1,"time":1281589417,"description":"[img]http://leetleech.org/images/62527870906803600256.jpg[/img]\n\nUser Rating:\n6.3/10   1,666 votes \n\nDirector:\nStephen Milburn Anderson\n\nWriter (WGA):\nStephen Milburn Anderson (written by)\n\nGenre:\nComedy | Crime | Thriller \n\nTagline:\nLove for money is the... \n\nPlot:\nA man meets up with two &quot;good guys&quot; to recover what is unlawfully his, taking them on his whirlwind ride, doing things they never would have imagined, just to survive\n\n[img]http://leetleech.org/images/42107790465518131247.jpg[/img]\n\nVideo\nID                               : 0\nFormat                           : MPEG-4 Visual\nFormat profile                   : Advanced Simple@L5\nFormat settings, BVOP            : Yes\nFormat settings, QPel            : No\nFormat settings, GMC             : No warppoints\nFormat settings, Matrix          : Default (H.263)\nMuxing mode                      : Packed bitstream\nCodec ID                         : XVID\nCodec ID/Hint                    : XviD\nDuration                         : 1h 48mn\nBit rate                         : 766 Kbps\nWidth                            : 512 pixels\nHeight                           : 288 pixels\nDisplay aspect ratio             : 16:9\nFrame rate                       : 29.970 fps\nResolution                       : 8 bits\nColorimetry                      : 4:2:0\nScan type                        : Progressive\nBits/(Pixel*Frame)               : 0.173\nStream size                      : 593 MiB (85%)\nWriting library                  : XviD 1.2.1 (UTC 2008-12-04)\n\nAudio\nID                               : 1\nFormat                           : MPEG Audio\nFormat version                   : Version 1\nFormat profile                   : Layer 3\nMode                             : Joint stereo\nCodec ID                         : 55\nCodec ID/Hint                    : MP3\nDuration                         : 1h 48mn\nBit rate mode                    : Constant\nBit rate                         : 128 Kbps\nChannel(s)                       : 2 channels\nSampling rate                    : 48.0 KHz\nStream size                      : 99.0 MiB (14%)\nAlignment                        : Aligned on interleaves\nInterleave, duration             : 33 ms (1.00 video frame)\nInterleave, preload duration     : 504 ms\n\nURL: http://www.imdb.com/title/tt1106860/\nTRAILER: http://www.imdb.com/video/imdb/vi3783197721/","torrent":{"xt":"urn:btih:bdbbee48d80c89d34fbe0ae5b8dd7b498462802f","amp;dn":"Ca%24h+2010+DVDRip+XviD+By+SKITTLES","amp;tr":["udp%3A%2F%2Ftracker.openbittorrent.com%3A80","udp%3A%2F%2Fopen.demonii.com%3A1337","udp%3A%2F%2Ftracker.coppersurfer.tk%3A6969","udp%3A%2F%2Fexodus.desync.com%3A6969"],"infoHash":"bdbbee48d80c89d34fbe0ae5b8dd7b498462802f","infoHashBuffer":{"type":"Buffer","data":[189,187,238,72,216,12,137,211,79,190,10,229,184,221,123,73,132,98,128,47]},"announce":[],"urlList":[]}}